%TF.GenerationSoftware,KiCad,Pcbnew,9.0.7*%
%TF.CreationDate,2026-09-18T20:45:56+05:30*%
%TF.ProjectId,CAN-Cybersecurity-Hardware,43414e2d-4379-4626-9572-736563757269,rev?*%
%TF.SameCoordinates,Original*%
%TF.FileFunction,Paste,Top*%
%TF.FilePolarity,Positive*%
%FSLAX46Y46*%
G04 Gerber Fmt 4.6, Leading zero omitted, Abs format (unit mm)*
G04 Created by KiCad (PCBNEW 9.0.7) date 2026-09-18 20:45:56*
%MOMM*%
%LPD*%
G01*
G04 APERTURE LIST*
G04 Aperture macros list*
%AMRoundRect*
0 Rectangle with rounded corners*
0 $1 Rounding radius*
0 $2 $3 $4 $5 $6 $7 $8 $9 X,Y pos of 4 corners*
0 Add a 4 corners polygon primitive as box body*
4,1,4,$2,$3,$4,$5,$6,$7,$8,$9,$2,$3,0*
0 Add four circle primitives for the rounded corners*
1,1,$1+$1,$2,$3*
1,1,$1+$1,$4,$5*
1,1,$1+$1,$6,$7*
1,1,$1+$1,$8,$9*
0 Add four rect primitives between the rounded corners*
20,1,$1+$1,$2,$3,$4,$5,0*
20,1,$1+$1,$4,$5,$6,$7,0*
20,1,$1+$1,$6,$7,$8,$9,0*
20,1,$1+$1,$8,$9,$2,$3,0*%
G04 Aperture macros list end*
%ADD10RoundRect,0.150000X-0.825000X-0.150000X0.825000X-0.150000X0.825000X0.150000X-0.825000X0.150000X0*%
%ADD11R,1.500000X0.900000*%
%ADD12R,0.900000X1.500000*%
%ADD13R,1.050000X1.050000*%
%ADD14RoundRect,0.375000X-0.625000X-0.375000X0.625000X-0.375000X0.625000X0.375000X-0.625000X0.375000X0*%
%ADD15RoundRect,0.500000X-0.500000X-1.400000X0.500000X-1.400000X0.500000X1.400000X-0.500000X1.400000X0*%
G04 APERTURE END LIST*
D10*
%TO.C,U3*%
X174550000Y-122190000D03*
X174550000Y-123460000D03*
X174550000Y-124730000D03*
X174550000Y-126000000D03*
X179500000Y-126000000D03*
X179500000Y-124730000D03*
X179500000Y-123460000D03*
X179500000Y-122190000D03*
%TD*%
D11*
%TO.C,U2*%
X146667500Y-76135000D03*
X146667500Y-77405000D03*
X146667500Y-78675000D03*
X146667500Y-79945000D03*
X146667500Y-81215000D03*
X146667500Y-82485000D03*
X146667500Y-83755000D03*
X146667500Y-85025000D03*
X146667500Y-86295000D03*
X146667500Y-87565000D03*
X146667500Y-88835000D03*
X146667500Y-90105000D03*
X146667500Y-91375000D03*
X146667500Y-92645000D03*
D12*
X149707500Y-93895000D03*
X150977500Y-93895000D03*
X152247500Y-93895000D03*
X153517500Y-93895000D03*
X154787500Y-93895000D03*
X156057500Y-93895000D03*
X157327500Y-93895000D03*
X158597500Y-93895000D03*
X159867500Y-93895000D03*
X161137500Y-93895000D03*
D11*
X164167500Y-92645000D03*
X164167500Y-91375000D03*
X164167500Y-90105000D03*
X164167500Y-88835000D03*
X164167500Y-87565000D03*
X164167500Y-86295000D03*
X164167500Y-85025000D03*
X164167500Y-83755000D03*
X164167500Y-82485000D03*
X164167500Y-81215000D03*
X164167500Y-79945000D03*
X164167500Y-78675000D03*
X164167500Y-77405000D03*
X164167500Y-76135000D03*
D13*
X153212500Y-81950000D03*
X153212500Y-83475000D03*
X153212500Y-85000000D03*
X154737500Y-81950000D03*
X154737500Y-83475000D03*
X154737500Y-85000000D03*
X156262500Y-81950000D03*
X156262500Y-83475000D03*
X156262500Y-85000000D03*
%TD*%
D14*
%TO.C,U1*%
X133850000Y-121200000D03*
X133850000Y-123500000D03*
D15*
X140150000Y-123500000D03*
D14*
X133850000Y-125800000D03*
%TD*%
M02*
