%TF.GenerationSoftware,KiCad,Pcbnew,9.0.7*%
%TF.CreationDate,2026-09-18T20:45:56+05:30*%
%TF.ProjectId,CAN-Cybersecurity-Hardware,43414e2d-4379-4626-9572-736563757269,rev?*%
%TF.SameCoordinates,Original*%
%TF.FileFunction,Legend,Top*%
%TF.FilePolarity,Positive*%
%FSLAX46Y46*%
G04 Gerber Fmt 4.6, Leading zero omitted, Abs format (unit mm)*
G04 Created by KiCad (PCBNEW 9.0.7) date 2026-09-18 20:45:56*
%MOMM*%
%LPD*%
G01*
G04 APERTURE LIST*
%ADD10C,0.150000*%
%ADD11C,0.120000*%
G04 APERTURE END LIST*
D10*
X176263095Y-120149819D02*
X176263095Y-120959342D01*
X176263095Y-120959342D02*
X176310714Y-121054580D01*
X176310714Y-121054580D02*
X176358333Y-121102200D01*
X176358333Y-121102200D02*
X176453571Y-121149819D01*
X176453571Y-121149819D02*
X176644047Y-121149819D01*
X176644047Y-121149819D02*
X176739285Y-121102200D01*
X176739285Y-121102200D02*
X176786904Y-121054580D01*
X176786904Y-121054580D02*
X176834523Y-120959342D01*
X176834523Y-120959342D02*
X176834523Y-120149819D01*
X177215476Y-120149819D02*
X177834523Y-120149819D01*
X177834523Y-120149819D02*
X177501190Y-120530771D01*
X177501190Y-120530771D02*
X177644047Y-120530771D01*
X177644047Y-120530771D02*
X177739285Y-120578390D01*
X177739285Y-120578390D02*
X177786904Y-120626009D01*
X177786904Y-120626009D02*
X177834523Y-120721247D01*
X177834523Y-120721247D02*
X177834523Y-120959342D01*
X177834523Y-120959342D02*
X177786904Y-121054580D01*
X177786904Y-121054580D02*
X177739285Y-121102200D01*
X177739285Y-121102200D02*
X177644047Y-121149819D01*
X177644047Y-121149819D02*
X177358333Y-121149819D01*
X177358333Y-121149819D02*
X177263095Y-121102200D01*
X177263095Y-121102200D02*
X177215476Y-121054580D01*
X144262319Y-93576904D02*
X145071842Y-93576904D01*
X145071842Y-93576904D02*
X145167080Y-93529285D01*
X145167080Y-93529285D02*
X145214700Y-93481666D01*
X145214700Y-93481666D02*
X145262319Y-93386428D01*
X145262319Y-93386428D02*
X145262319Y-93195952D01*
X145262319Y-93195952D02*
X145214700Y-93100714D01*
X145214700Y-93100714D02*
X145167080Y-93053095D01*
X145167080Y-93053095D02*
X145071842Y-93005476D01*
X145071842Y-93005476D02*
X144262319Y-93005476D01*
X144357557Y-92576904D02*
X144309938Y-92529285D01*
X144309938Y-92529285D02*
X144262319Y-92434047D01*
X144262319Y-92434047D02*
X144262319Y-92195952D01*
X144262319Y-92195952D02*
X144309938Y-92100714D01*
X144309938Y-92100714D02*
X144357557Y-92053095D01*
X144357557Y-92053095D02*
X144452795Y-92005476D01*
X144452795Y-92005476D02*
X144548033Y-92005476D01*
X144548033Y-92005476D02*
X144690890Y-92053095D01*
X144690890Y-92053095D02*
X145262319Y-92624523D01*
X145262319Y-92624523D02*
X145262319Y-92005476D01*
X136238095Y-118454819D02*
X136238095Y-119264342D01*
X136238095Y-119264342D02*
X136285714Y-119359580D01*
X136285714Y-119359580D02*
X136333333Y-119407200D01*
X136333333Y-119407200D02*
X136428571Y-119454819D01*
X136428571Y-119454819D02*
X136619047Y-119454819D01*
X136619047Y-119454819D02*
X136714285Y-119407200D01*
X136714285Y-119407200D02*
X136761904Y-119359580D01*
X136761904Y-119359580D02*
X136809523Y-119264342D01*
X136809523Y-119264342D02*
X136809523Y-118454819D01*
X137809523Y-119454819D02*
X137238095Y-119454819D01*
X137523809Y-119454819D02*
X137523809Y-118454819D01*
X137523809Y-118454819D02*
X137428571Y-118597676D01*
X137428571Y-118597676D02*
X137333333Y-118692914D01*
X137333333Y-118692914D02*
X137238095Y-118740533D01*
X145166667Y-101657200D02*
X145309524Y-101704819D01*
X145309524Y-101704819D02*
X145547619Y-101704819D01*
X145547619Y-101704819D02*
X145642857Y-101657200D01*
X145642857Y-101657200D02*
X145690476Y-101609580D01*
X145690476Y-101609580D02*
X145738095Y-101514342D01*
X145738095Y-101514342D02*
X145738095Y-101419104D01*
X145738095Y-101419104D02*
X145690476Y-101323866D01*
X145690476Y-101323866D02*
X145642857Y-101276247D01*
X145642857Y-101276247D02*
X145547619Y-101228628D01*
X145547619Y-101228628D02*
X145357143Y-101181009D01*
X145357143Y-101181009D02*
X145261905Y-101133390D01*
X145261905Y-101133390D02*
X145214286Y-101085771D01*
X145214286Y-101085771D02*
X145166667Y-100990533D01*
X145166667Y-100990533D02*
X145166667Y-100895295D01*
X145166667Y-100895295D02*
X145214286Y-100800057D01*
X145214286Y-100800057D02*
X145261905Y-100752438D01*
X145261905Y-100752438D02*
X145357143Y-100704819D01*
X145357143Y-100704819D02*
X145595238Y-100704819D01*
X145595238Y-100704819D02*
X145738095Y-100752438D01*
X146071429Y-100704819D02*
X146309524Y-101704819D01*
X146309524Y-101704819D02*
X146500000Y-100990533D01*
X146500000Y-100990533D02*
X146690476Y-101704819D01*
X146690476Y-101704819D02*
X146928572Y-100704819D01*
X147261905Y-100800057D02*
X147309524Y-100752438D01*
X147309524Y-100752438D02*
X147404762Y-100704819D01*
X147404762Y-100704819D02*
X147642857Y-100704819D01*
X147642857Y-100704819D02*
X147738095Y-100752438D01*
X147738095Y-100752438D02*
X147785714Y-100800057D01*
X147785714Y-100800057D02*
X147833333Y-100895295D01*
X147833333Y-100895295D02*
X147833333Y-100990533D01*
X147833333Y-100990533D02*
X147785714Y-101133390D01*
X147785714Y-101133390D02*
X147214286Y-101704819D01*
X147214286Y-101704819D02*
X147833333Y-101704819D01*
X165416667Y-101907200D02*
X165559524Y-101954819D01*
X165559524Y-101954819D02*
X165797619Y-101954819D01*
X165797619Y-101954819D02*
X165892857Y-101907200D01*
X165892857Y-101907200D02*
X165940476Y-101859580D01*
X165940476Y-101859580D02*
X165988095Y-101764342D01*
X165988095Y-101764342D02*
X165988095Y-101669104D01*
X165988095Y-101669104D02*
X165940476Y-101573866D01*
X165940476Y-101573866D02*
X165892857Y-101526247D01*
X165892857Y-101526247D02*
X165797619Y-101478628D01*
X165797619Y-101478628D02*
X165607143Y-101431009D01*
X165607143Y-101431009D02*
X165511905Y-101383390D01*
X165511905Y-101383390D02*
X165464286Y-101335771D01*
X165464286Y-101335771D02*
X165416667Y-101240533D01*
X165416667Y-101240533D02*
X165416667Y-101145295D01*
X165416667Y-101145295D02*
X165464286Y-101050057D01*
X165464286Y-101050057D02*
X165511905Y-101002438D01*
X165511905Y-101002438D02*
X165607143Y-100954819D01*
X165607143Y-100954819D02*
X165845238Y-100954819D01*
X165845238Y-100954819D02*
X165988095Y-101002438D01*
X166321429Y-100954819D02*
X166559524Y-101954819D01*
X166559524Y-101954819D02*
X166750000Y-101240533D01*
X166750000Y-101240533D02*
X166940476Y-101954819D01*
X166940476Y-101954819D02*
X167178572Y-100954819D01*
X168083333Y-101954819D02*
X167511905Y-101954819D01*
X167797619Y-101954819D02*
X167797619Y-100954819D01*
X167797619Y-100954819D02*
X167702381Y-101097676D01*
X167702381Y-101097676D02*
X167607143Y-101192914D01*
X167607143Y-101192914D02*
X167511905Y-101240533D01*
X165333333Y-112584819D02*
X165000000Y-112108628D01*
X164761905Y-112584819D02*
X164761905Y-111584819D01*
X164761905Y-111584819D02*
X165142857Y-111584819D01*
X165142857Y-111584819D02*
X165238095Y-111632438D01*
X165238095Y-111632438D02*
X165285714Y-111680057D01*
X165285714Y-111680057D02*
X165333333Y-111775295D01*
X165333333Y-111775295D02*
X165333333Y-111918152D01*
X165333333Y-111918152D02*
X165285714Y-112013390D01*
X165285714Y-112013390D02*
X165238095Y-112061009D01*
X165238095Y-112061009D02*
X165142857Y-112108628D01*
X165142857Y-112108628D02*
X164761905Y-112108628D01*
X165666667Y-111584819D02*
X166285714Y-111584819D01*
X166285714Y-111584819D02*
X165952381Y-111965771D01*
X165952381Y-111965771D02*
X166095238Y-111965771D01*
X166095238Y-111965771D02*
X166190476Y-112013390D01*
X166190476Y-112013390D02*
X166238095Y-112061009D01*
X166238095Y-112061009D02*
X166285714Y-112156247D01*
X166285714Y-112156247D02*
X166285714Y-112394342D01*
X166285714Y-112394342D02*
X166238095Y-112489580D01*
X166238095Y-112489580D02*
X166190476Y-112537200D01*
X166190476Y-112537200D02*
X166095238Y-112584819D01*
X166095238Y-112584819D02*
X165809524Y-112584819D01*
X165809524Y-112584819D02*
X165714286Y-112537200D01*
X165714286Y-112537200D02*
X165666667Y-112489580D01*
X146333333Y-112584819D02*
X146000000Y-112108628D01*
X145761905Y-112584819D02*
X145761905Y-111584819D01*
X145761905Y-111584819D02*
X146142857Y-111584819D01*
X146142857Y-111584819D02*
X146238095Y-111632438D01*
X146238095Y-111632438D02*
X146285714Y-111680057D01*
X146285714Y-111680057D02*
X146333333Y-111775295D01*
X146333333Y-111775295D02*
X146333333Y-111918152D01*
X146333333Y-111918152D02*
X146285714Y-112013390D01*
X146285714Y-112013390D02*
X146238095Y-112061009D01*
X146238095Y-112061009D02*
X146142857Y-112108628D01*
X146142857Y-112108628D02*
X145761905Y-112108628D01*
X146714286Y-111680057D02*
X146761905Y-111632438D01*
X146761905Y-111632438D02*
X146857143Y-111584819D01*
X146857143Y-111584819D02*
X147095238Y-111584819D01*
X147095238Y-111584819D02*
X147190476Y-111632438D01*
X147190476Y-111632438D02*
X147238095Y-111680057D01*
X147238095Y-111680057D02*
X147285714Y-111775295D01*
X147285714Y-111775295D02*
X147285714Y-111870533D01*
X147285714Y-111870533D02*
X147238095Y-112013390D01*
X147238095Y-112013390D02*
X146666667Y-112584819D01*
X146666667Y-112584819D02*
X147285714Y-112584819D01*
X166833333Y-139584819D02*
X166500000Y-139108628D01*
X166261905Y-139584819D02*
X166261905Y-138584819D01*
X166261905Y-138584819D02*
X166642857Y-138584819D01*
X166642857Y-138584819D02*
X166738095Y-138632438D01*
X166738095Y-138632438D02*
X166785714Y-138680057D01*
X166785714Y-138680057D02*
X166833333Y-138775295D01*
X166833333Y-138775295D02*
X166833333Y-138918152D01*
X166833333Y-138918152D02*
X166785714Y-139013390D01*
X166785714Y-139013390D02*
X166738095Y-139061009D01*
X166738095Y-139061009D02*
X166642857Y-139108628D01*
X166642857Y-139108628D02*
X166261905Y-139108628D01*
X167785714Y-139584819D02*
X167214286Y-139584819D01*
X167500000Y-139584819D02*
X167500000Y-138584819D01*
X167500000Y-138584819D02*
X167404762Y-138727676D01*
X167404762Y-138727676D02*
X167309524Y-138822914D01*
X167309524Y-138822914D02*
X167214286Y-138870533D01*
X188616666Y-137179819D02*
X188616666Y-137894104D01*
X188616666Y-137894104D02*
X188569047Y-138036961D01*
X188569047Y-138036961D02*
X188473809Y-138132200D01*
X188473809Y-138132200D02*
X188330952Y-138179819D01*
X188330952Y-138179819D02*
X188235714Y-138179819D01*
X189045238Y-137275057D02*
X189092857Y-137227438D01*
X189092857Y-137227438D02*
X189188095Y-137179819D01*
X189188095Y-137179819D02*
X189426190Y-137179819D01*
X189426190Y-137179819D02*
X189521428Y-137227438D01*
X189521428Y-137227438D02*
X189569047Y-137275057D01*
X189569047Y-137275057D02*
X189616666Y-137370295D01*
X189616666Y-137370295D02*
X189616666Y-137465533D01*
X189616666Y-137465533D02*
X189569047Y-137608390D01*
X189569047Y-137608390D02*
X188997619Y-138179819D01*
X188997619Y-138179819D02*
X189616666Y-138179819D01*
X136666666Y-137034819D02*
X136666666Y-137749104D01*
X136666666Y-137749104D02*
X136619047Y-137891961D01*
X136619047Y-137891961D02*
X136523809Y-137987200D01*
X136523809Y-137987200D02*
X136380952Y-138034819D01*
X136380952Y-138034819D02*
X136285714Y-138034819D01*
X137666666Y-138034819D02*
X137095238Y-138034819D01*
X137380952Y-138034819D02*
X137380952Y-137034819D01*
X137380952Y-137034819D02*
X137285714Y-137177676D01*
X137285714Y-137177676D02*
X137190476Y-137272914D01*
X137190476Y-137272914D02*
X137095238Y-137320533D01*
X121833333Y-129359580D02*
X121785714Y-129407200D01*
X121785714Y-129407200D02*
X121642857Y-129454819D01*
X121642857Y-129454819D02*
X121547619Y-129454819D01*
X121547619Y-129454819D02*
X121404762Y-129407200D01*
X121404762Y-129407200D02*
X121309524Y-129311961D01*
X121309524Y-129311961D02*
X121261905Y-129216723D01*
X121261905Y-129216723D02*
X121214286Y-129026247D01*
X121214286Y-129026247D02*
X121214286Y-128883390D01*
X121214286Y-128883390D02*
X121261905Y-128692914D01*
X121261905Y-128692914D02*
X121309524Y-128597676D01*
X121309524Y-128597676D02*
X121404762Y-128502438D01*
X121404762Y-128502438D02*
X121547619Y-128454819D01*
X121547619Y-128454819D02*
X121642857Y-128454819D01*
X121642857Y-128454819D02*
X121785714Y-128502438D01*
X121785714Y-128502438D02*
X121833333Y-128550057D01*
X122785714Y-129454819D02*
X122214286Y-129454819D01*
X122500000Y-129454819D02*
X122500000Y-128454819D01*
X122500000Y-128454819D02*
X122404762Y-128597676D01*
X122404762Y-128597676D02*
X122309524Y-128692914D01*
X122309524Y-128692914D02*
X122214286Y-128740533D01*
D11*
%TO.C,U3*%
X174965000Y-121535000D02*
X179085000Y-121535000D01*
X174965000Y-121630000D02*
X174965000Y-121535000D01*
X174965000Y-126655000D02*
X174965000Y-126560000D01*
X179085000Y-121535000D02*
X179085000Y-121630000D01*
X179085000Y-126560000D02*
X179085000Y-126655000D01*
X179085000Y-126655000D02*
X174965000Y-126655000D01*
X174425000Y-121625000D02*
X174185000Y-121295000D01*
X174665000Y-121295000D01*
X174425000Y-121625000D01*
G36*
X174425000Y-121625000D02*
G01*
X174185000Y-121295000D01*
X174665000Y-121295000D01*
X174425000Y-121625000D01*
G37*
%TO.C,U2*%
X146297500Y-68525000D02*
X146297500Y-74685000D01*
X146297500Y-68525000D02*
X164537500Y-68525000D01*
X146297500Y-93485000D02*
X146297500Y-94265000D01*
X146297500Y-94265000D02*
X147297500Y-94265000D01*
X164537500Y-68525000D02*
X164537500Y-74940000D01*
X164537500Y-93485000D02*
X164537500Y-94265000D01*
X164537500Y-94265000D02*
X163537500Y-94265000D01*
X146292500Y-75410000D02*
X145792500Y-75410000D01*
X146292500Y-74910000D01*
X146292500Y-75410000D01*
G36*
X146292500Y-75410000D02*
G01*
X145792500Y-75410000D01*
X146292500Y-74910000D01*
X146292500Y-75410000D01*
G37*
%TO.C,U1*%
X135150000Y-120090000D02*
X138910000Y-120090000D01*
X135150000Y-126910000D02*
X138910000Y-126910000D01*
X138910000Y-120090000D02*
X138910000Y-121350000D01*
X138910000Y-126910000D02*
X138910000Y-125650000D01*
X133870000Y-120190000D02*
X133630000Y-119860000D01*
X134110000Y-119860000D01*
X133870000Y-120190000D01*
G36*
X133870000Y-120190000D02*
G01*
X133630000Y-119860000D01*
X134110000Y-119860000D01*
X133870000Y-120190000D01*
G37*
%TO.C,SW2*%
X143000000Y-104750000D02*
X143000000Y-106250000D01*
X144250000Y-108750000D02*
X148750000Y-108750000D01*
X148750000Y-102250000D02*
X144250000Y-102250000D01*
X150000000Y-106250000D02*
X150000000Y-104750000D01*
%TO.C,SW1*%
X163250000Y-105000000D02*
X163250000Y-106500000D01*
X164500000Y-109000000D02*
X169000000Y-109000000D01*
X169000000Y-102500000D02*
X164500000Y-102500000D01*
X170250000Y-106500000D02*
X170250000Y-105000000D01*
%TO.C,R3*%
X161460000Y-114500000D02*
X162230000Y-114500000D01*
X169540000Y-114500000D02*
X168770000Y-114500000D01*
X162230000Y-113130000D02*
X168770000Y-113130000D01*
X168770000Y-115870000D01*
X162230000Y-115870000D01*
X162230000Y-113130000D01*
%TO.C,R2*%
X142460000Y-114500000D02*
X143230000Y-114500000D01*
X150540000Y-114500000D02*
X149770000Y-114500000D01*
X143230000Y-113130000D02*
X149770000Y-113130000D01*
X149770000Y-115870000D01*
X143230000Y-115870000D01*
X143230000Y-113130000D01*
%TO.C,R1*%
X162960000Y-141500000D02*
X163730000Y-141500000D01*
X171040000Y-141500000D02*
X170270000Y-141500000D01*
X163730000Y-140130000D02*
X170270000Y-140130000D01*
X170270000Y-142870000D01*
X163730000Y-142870000D01*
X163730000Y-140130000D01*
%TO.C,J2*%
X185100000Y-138475000D02*
X192900000Y-138475000D01*
X185100000Y-144525000D02*
X185100000Y-138475000D01*
X186450000Y-143415000D02*
X191530000Y-143415000D01*
X186450000Y-144425000D02*
X186450000Y-143415000D01*
X191530000Y-143415000D02*
X191530000Y-144425000D01*
X192900000Y-138475000D02*
X192900000Y-144525000D01*
X192900000Y-144525000D02*
X185100000Y-144525000D01*
%TO.C,J1*%
X135620000Y-138580000D02*
X137000000Y-138580000D01*
X135620000Y-139960000D02*
X135620000Y-138580000D01*
X135620000Y-141230000D02*
X135620000Y-143880000D01*
X135620000Y-141230000D02*
X138380000Y-141230000D01*
X135620000Y-143880000D02*
X138380000Y-143880000D01*
X138380000Y-141230000D02*
X138380000Y-143880000D01*
%TO.C,C2*%
X151120000Y-131000000D02*
G75*
G02*
X145880000Y-131000000I-2620000J0D01*
G01*
X145880000Y-131000000D02*
G75*
G02*
X151120000Y-131000000I2620000J0D01*
G01*
%TO.C,C1*%
X119380000Y-130130000D02*
X124620000Y-130130000D01*
X119380000Y-130467000D02*
X119380000Y-130130000D01*
X119380000Y-132870000D02*
X119380000Y-132533000D01*
X124620000Y-130130000D02*
X124620000Y-130467000D01*
X124620000Y-132533000D02*
X124620000Y-132870000D01*
X124620000Y-132870000D02*
X119380000Y-132870000D01*
%TD*%
M02*
