M48
; DRILL file {KiCad 9.0.7} date 2026-09-18T20:31:43+0530
; FORMAT={-:-/ absolute / metric / decimal}
; #@! TF.CreationDate,2026-09-18T20:31:43+05:30
; #@! TF.GenerationSoftware,Kicad,Pcbnew,9.0.7
; #@! TF.FileFunction,Plated,1,2,PTH
FMAT,2
METRIC
; #@! TA.AperFunction,Plated,PTH,ComponentDrill
T1C0.200
; #@! TA.AperFunction,Plated,PTH,ComponentDrill
T2C0.600
; #@! TA.AperFunction,Plated,PTH,ComponentDrill
T3C0.800
; #@! TA.AperFunction,Plated,PTH,ComponentDrill
T4C1.000
; #@! TA.AperFunction,Plated,PTH,ComponentDrill
T5C1.020
; #@! TA.AperFunction,Plated,PTH,ComponentDrill
T6C1.100
%
G90
G05
T1
X153.213Y-82.712
X153.213Y-84.237
X153.975Y-81.95
X153.975Y-83.475
X153.975Y-85.0
X154.737Y-82.712
X154.737Y-84.237
X155.5Y-81.95
X155.5Y-83.475
X155.5Y-85.0
X156.262Y-82.712
X156.262Y-84.237
T2
X147.5Y-131.0
X149.5Y-131.0
T3
X119.5Y-131.5
X124.5Y-131.5
X141.42Y-114.5
X151.58Y-114.5
X160.42Y-114.5
X161.92Y-141.5
X170.58Y-114.5
X172.08Y-141.5
T4
X137.0Y-139.96
X137.0Y-142.5
T5
X186.45Y-141.125
X188.99Y-141.125
X191.53Y-141.125
T6
X143.25Y-103.25
X143.25Y-107.75
X149.75Y-103.25
X149.75Y-107.75
X163.5Y-103.5
X163.5Y-108.0
X170.0Y-103.5
X170.0Y-108.0
M30
